inDegrees=no
num_controls=7
num_derivatives=13
num_iterations=58
num_multipliers=7
num_parameters=0
num_slacks=7
num_states=26
objective=0.449154
objective_accelerations=0.049601
objective_balance=0.006729
objective_effort=0.036683
objective_height=0.351198
objective_ligament=0.004943
solver_duration=921.359012
status=Solve_Succeeded
success=true
DataType=double
version=3
OpenSimVersion=4.5
endheader
time	/jointset/ground_pelvis/pelvis_tilt/value	/jointset/ground_pelvis/pelvis_tx/value	/jointset/ground_pelvis/pelvis_ty/value	/jointset/hip_l/hip_flexion_l/value	/jointset/hip_l/hip_adduction_l/value	/jointset/hip_l/hip_rotation_l/value	/jointset/back/lumbar_extension/value	/jointset/patellofemoral_l/patellar_flexion_l/value	/jointset/knee_l/knee_flexion_l/value	/jointset/knee_l/knee_adduction_l/value	/jointset/knee_l/knee_rotation_l/value	/jointset/ankle_l/ankle_angle_l/value	/jointset/subtalar_l/subtalar_angle_l/value	/jointset/ground_pelvis/pelvis_tilt/speed	/jointset/ground_pelvis/pelvis_tx/speed	/jointset/ground_pelvis/pelvis_ty/speed	/jointset/hip_l/hip_flexion_l/speed	/jointset/hip_l/hip_adduction_l/speed	/jointset/hip_l/hip_rotation_l/speed	/jointset/back/lumbar_extension/speed	/jointset/patellofemoral_l/patellar_flexion_l/speed	/jointset/knee_l/knee_flexion_l/speed	/jointset/knee_l/knee_adduction_l/speed	/jointset/knee_l/knee_rotation_l/speed	/jointset/ankle_l/ankle_angle_l/speed	/jointset/subtalar_l/subtalar_angle_l/speed	/forceset/tau_hip_flexion_l	/forceset/tau_hip_adduction_l	/forceset/tau_hip_rotation_l	/forceset/tau_knee_flexion_l	/forceset/tau_ankle_angle_l	/forceset/tau_subtalar_angle_l	/forceset/tau_lumbar_extension	lambda_cid13_p0	lambda_cid13_p1	lambda_cid13_p2	lambda_cid13_p3	lambda_cid13_p4	lambda_cid13_p5	lambda_cid14_p0	/jointset/ground_pelvis/pelvis_tilt/accel	/jointset/ground_pelvis/pelvis_tx/accel	/jointset/ground_pelvis/pelvis_ty/accel	/jointset/hip_l/hip_flexion_l/accel	/jointset/hip_l/hip_adduction_l/accel	/jointset/hip_l/hip_rotation_l/accel	/jointset/back/lumbar_extension/accel	/jointset/patellofemoral_l/patellar_flexion_l/accel	/jointset/knee_l/knee_flexion_l/accel	/jointset/knee_l/knee_adduction_l/accel	/jointset/knee_l/knee_rotation_l/accel	/jointset/ankle_l/ankle_angle_l/accel	/jointset/subtalar_l/subtalar_angle_l/accel	gamma_cid13_p0	gamma_cid13_p1	gamma_cid13_p2	gamma_cid13_p3	gamma_cid13_p4	gamma_cid13_p5	gamma_cid14_p0
1.5	-0.4474273689605823	-0.0661873506783778	0.7638979105535219	1.261873626209891	-0.3075489083407277	-0.03942715613472937	-0.3433115412909208	0.6994915211251712	0.6994915211252318	-0.1707848968042186	0.170960711807498	0.05368733721594809	-0.04358454777863482	0.7316509580205027	0.2410071361389324	0.4856513090984207	-2.322582251341065	0.02929574848372771	-0.6071506288764141	0.5633413617656748	-1.782248518294933	-1.782248518294852	0.005576139554274909	-0.01479003976225312	-0.2861763180075069	-0.006527656284126375	-0.2488537690677481	0.06425548483686272	-0.02075987523489532	-0.1979118192325978	0.1307942465459397	0.002571275802391713	0.223759734312279	2.272993747929184	-3.962825889937178	3.025724024272012	-4.106755013780454	-608.5928881383426	-21.59903234634817	-27.62035612208624	0.613228483560455	0.6374309774394527	-0.3192482654759372	-1.433807117276132	0.5783131750543116	-0.3893119503122555	1.662414326649359	-1.015772731424671	-1.015772731424773	0.1006905448243632	0.07002835663863877	-0.1563719846317364	0.558859315662106	3.237184343490344e-07	7.16361761757288e-07	-1.620087602816313e-06	-1.255231015588237e-07	4.026071250062467e-07	3.577588434564699e-08	3.283529004765778e-07
1.51	-0.4400804770696921	-0.0637455642855545	0.768737555834958	1.2385779915655	-0.3072286547823003	-0.04551523035924584	-0.3375964307798946	0.6816200713863508	0.6816200713864057	-0.1707286466021439	0.1708160178750687	0.05081777948843089	-0.04362366668229236	0.7376296197253532	0.2473256876255498	0.4821824168919231	-2.33624030724833	0.03472786200237345	-0.6102264835837276	0.5796095440742743	-1.79181426864639	-1.791814268646224	0.005516931669748115	-0.01425634171346821	-0.2876864658557297	-0.001324571210160699	-0.2408596306582781	0.06357656308143106	-0.02062485277335995	-0.1968323056282785	0.1317686936411269	0.001653356286887937	0.2176005331629095	2.797379456115881	-3.791356813665998	3.153008763050539	-4.215330888227905	-604.2713763326554	-21.75748283619723	-28.65159504247382	0.575549216466554	0.6253897454512428	-0.3749356973108786	-1.286107116015857	0.5216729646551552	-0.2307546998750774	1.598340727974812	-0.8929663175857739	-0.8929663175732331	-0.08268098101814299	0.02922092350683104	-0.1410182218066801	0.4967817105051729	2.872505202415284e-07	8.790757489687586e-07	-1.498737983106725e-06	-7.326493886825355e-08	3.795865018108021e-07	8.889309834464578e-08	3.23675249839135e-07
1.52	-0.4326767257212679	-0.06124132787563023	0.7735396669945147	1.215154915904316	-0.3068548775838345	-0.05162686962454918	-0.3317207743367778	0.6636597661179583	0.6636597661178959	-0.1706776793842133	0.1706734970019316	0.04793458387505435	-0.04361160501376188	0.7430228495309833	0.2534971395591246	0.4781444847225202	-2.34807045469818	0.04000047649641901	-0.6118636370483848	0.5954505481832807	-1.80001962422102	-1.80001962422077	0.004519542748156103	-0.01435542788433896	-0.2889038951795105	0.003708458153466901	-0.2328654922486786	0.06289764132613954	-0.02048983031300351	-0.1957527920237404	0.1327431407363957	0.0007354367715909168	0.2114413320136191	3.314760546303522	-3.622817211961143	3.28550828784079	-4.324764359117245	-600.0597770342164	-21.99623711803332	-29.66554857289015	0.4961421037164223	0.6080110668309209	-0.4330562580569804	-1.06822542579275	0.5464133701343358	-0.1015717017810462	1.576978686730609	-0.7436937760593091	-0.7436937760593109	-0.08694566258868711	-0.05652848729250352	-0.09782827974334454	0.5248481735944962	2.22541152670723e-07	1.058129110453917e-06	-1.203650188635599e-06	-2.831975947949151e-09	3.422185525687568e-07	1.412884771890412e-07	2.955393124986738e-07
1.53	-0.4252220608589407	-0.05867619553332735	0.778298601037308	1.19162297250425	-0.3064285727031907	-0.05775101989746995	-0.3256889768375276	0.6456248194655964	0.6456248194655309	-0.1706382651446993	0.1705290055409931	0.04504093852774217	-0.04354937269849624	0.7478047067453463	0.259496103983989	0.473552116008478	-2.35799070724438	0.04526563965506692	-0.6129047895285941	0.6108216312499385	-1.806706446115081	-1.806706446114861	0.003373661458622875	-0.01452937495934456	-0.2897625911720552	0.008746346864409196	-0.2247734871170368	0.06207044189072031	-0.02040536410650918	-0.1947348872972651	0.1337929216351666	-0.0003125350517246161	0.2051573014807871	3.848093889712142	-3.401820127617621	3.411050471913923	-4.406658806619415	-595.8963179184194	-22.16771823210429	-30.65770938487822	0.4534108412744546	0.5908823839325847	-0.4858060641468206	-0.9047774589667037	0.5172340340598833	-0.09591625035181191	1.50407505395389	-0.5917301902092855	-0.5917301902138985	-0.1266461331825061	0.004346606474017406	-0.07048692931041446	0.4943510876712733	1.27825240795162e-07	1.254543057104868e-06	-7.239655834803416e-07	8.691171221644761e-08	2.896065694021985e-07	1.929169061816705e-07	2.424789455362558e-07
1.54	-0.4177227367622744	-0.05605206489605282	0.7830089156157471	1.168001656120734	-0.3059494829418929	-0.06388368754104795	-0.3195060881201466	0.6275308938354714	0.6275308938353995	-0.1706099570722519	0.1703832094941486	0.04214058688644413	-0.04343654312255569	0.7519546963988729	0.2652967985534557	0.4684205918517118	-2.365945051387905	0.05055745262691913	-0.6135671111772396	0.6256687918094425	-1.811815419774329	-1.811815419774139	0.002298309327210747	-0.0146163450712121	-0.2902451539766093	0.01382791028843875	-0.2166814819854125	0.06124324245526104	-0.02032089789969985	-0.1937169825708416	0.1348427025339199	-0.001360506875092556	0.1988732709479523	4.37325987074761	-3.182151566278085	3.539955548632652	-4.474895343200139	-591.8535327800395	-22.39812075006731	-31.6236848659964	0.3697685915491734	0.5683570957513713	-0.5408873466017683	-0.6750437452577095	0.551743332775176	-0.02580553546826832	1.472194185299728	-0.428124129096729	-0.4281241290967299	-0.07283983096445068	-0.03913309466492416	-0.02260164214523628	0.5335831162119663	7.001156510199628e-08	1.389158205923948e-06	-4.42694240901469e-07	1.421835579493416e-07	2.615160268913404e-07	2.315965527503291e-07	2.123595383766823e-07
1.55	-0.410185135461854	-0.05337098295413076	0.787665283627326	1.144310731783084	-0.3054171964014461	-0.07002195210363452	-0.313177436126484	0.609393934385007	0.6093939343849581	-0.1705913151191137	0.1702375909292967	0.03923736794442616	-0.04327250327172397	0.7554507343149001	0.2708792806656226	0.4627689481619944	-2.371894292649629	0.05591846810275138	-0.61408232893407	0.6399673225416466	-1.815296649099363	-1.815296649099129	0.001500439558029681	-0.01444998375236404	-0.2903286251688009	0.01900418854239255	-0.208570117764991	0.06022862506793014	-0.020289744115107	-0.1927682086189548	0.1360049766437058	-0.002490553455093125	0.1925441296104932	4.9230668382083	-2.932349969867045	3.665424372688149	-4.541350524909554	-587.9448540853272	-22.60298870978184	-32.55899336050006	0.3223092648492569	0.5471806699551539	-0.5898598717647995	-0.5030195802548013	0.5309339646734377	-0.06363718309942656	1.394539859795101	-0.2661904761235083	-0.2661904761169704	-0.07247168348785231	0.05326530339397031	0.009298211128113569	0.5130777636212352	5.471568327115311e-08	1.452570392023703e-06	-3.900294834649397e-07	1.57737846098115e-07	2.616784486142225e-07	2.553569500044137e-07	2.086721066421238e-07
